<?xml version="1.0" encoding="utf-8"?>
<!-- Generator: Adobe Illustrator 15.0.2, SVG Export Plug-In . SVG Version: 6.00 Build 0)  -->
<!DOCTYPE svg PUBLIC "-//W3C//DTD SVG 1.1//EN" "http://www.w3.org/Graphics/SVG/1.1/DTD/svg11.dtd">
<svg version="1.1" id="Layer_1" xmlns="http://www.w3.org/2000/svg" xmlns:xlink="http://www.w3.org/1999/xlink" x="0px" y="0px"
	 width="200px" height="200px" viewBox="0 0 200 200" enable-background="new 0 0 200 200" xml:space="preserve">
<circle fill="#FFFFFF" cx="99.453" cy="99.453" r="97.453"/>
<g>
	<path fill="#B0E0F6" d="M100,0C44.771,0,0,44.771,0,100c0,55.229,44.771,100,100,100c55.229,0,100-44.771,100-100
		C200,44.771,155.229,0,100,0z M109.639,142.926c-2.634,0.477-4.548,2.768-4.548,5.442v5.663H61.072
		c-5.263,0-9.529-4.266-9.529-9.526V50.569c0-5.263,4.266-9.528,9.529-9.528h57.934c5.262,0,9.527,4.266,9.527,9.528v33.175
		c-3.244,1.507-6.045,3.489-8.29,5.943c-0.802,0.875-1.511,1.817-2.181,2.787c-0.715-2.815-3.246-4.907-6.285-4.907
		c-3.594,0-6.508,2.914-6.508,6.508c0,3.594,2.914,6.508,6.508,6.508c0.981,0,1.904-0.234,2.74-0.624
		c-0.814,2.727-1.264,5.588-1.332,8.539c-0.457-0.1-0.925-0.161-1.408-0.161c-3.594,0-6.508,2.915-6.508,6.509
		c0,1.244,0.369,2.4,0.978,3.389c-1.3,1.799-2.021,3.908-2.021,6.19v4.604c0,1.701,0.783,3.203,1.989,4.219
		c-0.587,0.979-0.946,2.109-0.946,3.337c0,2.988,2.025,5.479,4.771,6.243C109.904,142.859,109.771,142.9,109.639,142.926z
		 M162.736,151.152c0,0.705-0.151,1.425-0.455,2.16c-0.303,0.734-0.729,1.397-1.271,1.992c-0.545,0.59-1.207,1.07-1.99,1.438
		c-0.785,0.369-1.656,0.554-2.617,0.554h-45.779v-3.264v-5.664c1.059-0.19,2.07-0.495,3.048-0.909
		c0.978-0.417,1.83-0.945,2.567-1.585c0.736-0.64,1.328-1.407,1.775-2.304c0.447-0.895,0.672-1.936,0.672-3.117v-11.422h-8.927
		v-4.605c0-1.207,0.376-2.259,1.101-3.164c0.045-0.057,0.076-0.117,0.125-0.171c0.813-0.944,2.037-1.418,3.67-1.418h1.453h2.578
		v-10.364c0-3.039,0.463-5.928,1.392-8.662c0.929-2.735,2.344-5.143,4.248-7.223c1.202-1.314,2.622-2.44,4.209-3.416
		c0.925-0.568,1.89-1.097,2.94-1.55c2.861-1.231,6.246-1.847,10.148-1.847c2.59,0,4.934,0.328,7.029,0.983
		c2.096,0.656,3.967,1.567,5.615,2.735c1.646,1.169,3.096,2.544,4.342,4.127c1.248,1.584,2.334,3.288,3.264,5.111l-5.949,3.742
		c-1.186,0.642-2.318,0.961-3.408,0.961c-1.472,0-2.8-0.606-3.982-1.822c-1.217-1.248-2.32-2.175-3.311-2.784
		c-0.992-0.608-2.19-0.913-3.6-0.913c-2.592,0-4.52,0.905-5.782,2.712c-1.266,1.808-1.896,4.407-1.896,7.798v10.413h18.234v5.662
		c0,0.479-0.104,0.937-0.313,1.369c-0.209,0.433-0.496,0.823-0.863,1.175c-0.367,0.354-0.802,0.635-1.295,0.84
		c-0.498,0.209-1.049,0.313-1.656,0.313h-14.107v7.485c0,1.918-0.361,3.654-1.08,5.205c-0.719,1.553-1.688,3.002-2.903,4.344
		c1.438-0.319,2.88-0.565,4.319-0.743c1.439-0.177,2.894-0.263,4.365-0.263h24.09V151.152L162.736,151.152z"/>
	<circle fill="#B0E0F6" cx="68.299" cy="136.586" r="6.508"/>
	<path fill="#B0E0F6" d="M66.555,79.536h46.968c2.631,0,4.765-2.133,4.765-4.764V57.159c0-2.631-2.134-4.764-4.765-4.764H66.555
		c-2.631,0-4.764,2.133-4.764,4.764v17.613C61.791,77.403,63.924,79.536,66.555,79.536z"/>
	<circle fill="#B0E0F6" cx="68.299" cy="114.846" r="6.508"/>
	<circle fill="#B0E0F6" cx="68.299" cy="94.075" r="6.508"/>
	<circle fill="#B0E0F6" cx="90.038" cy="94.075" r="6.508"/>
	<circle fill="#B0E0F6" cx="90.038" cy="136.586" r="6.508"/>
	<circle fill="#B0E0F6" cx="90.038" cy="114.846" r="6.508"/>
</g>
</svg>
