<?xml version="1.0" encoding="utf-8"?>
<!-- Generator: Adobe Illustrator 15.0.2, SVG Export Plug-In . SVG Version: 6.00 Build 0)  -->
<!DOCTYPE svg PUBLIC "-//W3C//DTD SVG 1.1//EN" "http://www.w3.org/Graphics/SVG/1.1/DTD/svg11.dtd">
<svg version="1.1" id="Layer_1" xmlns="http://www.w3.org/2000/svg" xmlns:xlink="http://www.w3.org/1999/xlink" x="0px" y="0px"
	 width="173.863px" height="92.194px" viewBox="0 0 173.863 92.194" enable-background="new 0 0 173.863 92.194"
	 xml:space="preserve">
<path fill="none" d="M87.493,67.82c-29.153,0-52.87-15.211-52.87-33.91C34.623,15.212,58.34,0,87.493,0
	c29.154,0,52.871,15.212,52.871,33.91C140.363,52.609,116.646,67.82,87.493,67.82z"/>
<g>
	<path fill="#085CA8" d="M87.493,0c-29.153,0-52.87,15.212-52.87,33.91c0,18.699,23.717,33.91,52.87,33.91
		c29.154,0,52.871-15.211,52.871-33.91C140.363,15.212,116.646,0,87.493,0z M87.493,66.82c-28.601,0-51.87-14.764-51.87-32.91
		C35.623,15.764,58.892,1,87.493,1s51.871,14.764,51.871,32.91C139.363,52.056,116.094,66.82,87.493,66.82z"/>
	<polygon fill="#085CA8" points="56.383,28.06 52.792,37.21 60.533,37.21 56.713,28.06 	"/>
	<path fill="#085CA8" d="M120.473,33.25c-1.01-0.56-2.6-0.83-4.76-0.79v9.89c0.01,0.69,0.119,1.2,0.311,1.52
		c0.33,0.57,0.949,0.85,1.869,0.85c1.881,0,3.189-0.51,3.939-1.52c0.771-1.02,1.15-2.47,1.15-4.35
		C122.982,36.04,122.152,34.18,120.473,33.25z"/>
	<path fill="#085CA8" d="M121.934,25.82c0-1.51-0.281-2.78-0.83-3.81c-0.551-1.03-1.611-1.54-3.17-1.54c-0.83,0-1.41,0.14-1.73,0.42
		c-0.33,0.27-0.49,0.77-0.49,1.49v8.88c2.461,0,4.119-0.4,4.961-1.2C121.514,29.27,121.934,27.85,121.934,25.82z"/>
	<path fill="#085CA8" d="M87.493,2.5c-27.82,0-50.37,14.06-50.37,31.41s22.55,31.41,50.37,31.41s50.371-14.06,50.371-31.41
		S115.313,2.5,87.493,2.5z M62.663,42.52c-0.13-0.37-0.3-0.82-0.52-1.35l-1.01-2.4h-8.94c-0.59,1.57-0.96,2.6-1.13,3.07
		c-0.35,1.02-0.53,1.76-0.53,2.23c0,0.56,0.39,0.97,1.15,1.23c0.45,0.14,1.13,0.22,2.04,0.23v1.01h-8.12v-1.01
		c0.95-0.06,1.72-0.49,2.31-1.29c0.37-0.5,0.91-1.61,1.61-3.32l8.85-21.65h1.11l8.88,20.78c1,2.33,1.74,3.83,2.24,4.52
		c0.49,0.67,1.19,0.99,2.1,0.96v1.01h-12.89v-1.01c1.29-0.05,2.14-0.16,2.54-0.33c0.42-0.16,0.63-0.59,0.63-1.27
		C62.983,43.62,62.873,43.15,62.663,42.52z M73.473,39.75h1.86c1.05,4.79,2.75,8.27,5.09,10.451c2.35,2.17,5.05,3.26,8.079,3.26
		c2.951,0,5.041-0.74,6.291-2.23c1.24-1.51,1.859-3.08,1.859-4.74c0-1.92-0.65-3.49-1.959-4.7c-0.861-0.8-2.6-1.83-5.211-3.11
		l-4.2-2.07c-4.17-2.05-7.11-4.07-8.81-6.08c-1.71-2.01-2.56-4.49-2.56-7.44c0-3.14,1.13-6.06,3.38-8.78
		c2.27-2.72,5.75-4.08,10.42-4.08c2.381,0,4.67,0.35,6.891,1.07c2.229,0.71,3.5,1.06,3.82,1.06c0.709,0,1.209-0.2,1.479-0.59
		c0.281-0.42,0.5-0.97,0.66-1.64h1.93v14h-1.799c-0.861-3.24-2.391-6.04-4.58-8.38c-2.17-2.34-4.811-3.51-7.92-3.51
		c-2.201,0-3.931,0.59-5.221,1.79c-1.26,1.17-1.89,2.6-1.89,4.29c0,2.03,0.6,3.55,1.8,4.55c1.18,1.03,3.8,2.53,7.859,4.52
		l4.871,2.38c2.17,1.07,3.889,2.25,5.18,3.55c2.4,2.42,3.6,5.37,3.6,8.84c0,3.25-1.299,6.31-3.891,9.201
		c-2.568,2.859-6.689,4.289-12.379,4.289c-1.3,0-2.63-0.119-3.98-0.369c-1.32-0.23-2.64-0.601-3.95-1.101l-1.26-0.47
		c-0.29-0.08-0.58-0.15-0.85-0.19c-0.28-0.06-0.51-0.09-0.7-0.09c-0.67,0-1.13,0.2-1.39,0.59c-0.25,0.38-0.47,0.92-0.66,1.63h-1.86
		V39.75z M126.793,43.97c-2.029,1.35-4.74,2.03-8.131,2.03h-12.809v-1.01c1.08-0.04,1.85-0.18,2.32-0.42
		c0.789-0.42,1.18-1.2,1.18-2.36V23.07c0-1.15-0.371-1.93-1.111-2.33c-0.439-0.25-1.229-0.4-2.389-0.47v-1h12.309
		c2.371,0,4.34,0.27,5.91,0.81c2.951,1.02,4.43,2.87,4.43,5.56c0,1.64-0.6,2.94-1.809,3.9c-1.191,0.95-2.48,1.56-3.881,1.82v0.37
		c1.471,0.28,2.76,0.76,3.85,1.42c2.121,1.32,3.182,3.15,3.182,5.49C129.844,40.83,128.832,42.6,126.793,43.97z"/>
</g>
<g>
	<path fill="#085CA8" d="M14.334,88.603h-1.476c-0.17,0-0.308-0.043-0.413-0.128s-0.184-0.193-0.236-0.325l-1.318-3.402H4.566
		L3.248,88.15c-0.046,0.119-0.125,0.224-0.236,0.315c-0.112,0.092-0.25,0.138-0.414,0.138H1.123L6.76,74.506h1.938L14.334,88.603z
		 M5.098,83.37h5.263l-2.213-5.735c-0.144-0.354-0.285-0.797-0.423-1.328c-0.072,0.27-0.143,0.517-0.211,0.743
		c-0.069,0.226-0.136,0.425-0.202,0.595L5.098,83.37z"/>
	<path fill="#085CA8" d="M17.984,75.509c0,0.171-0.034,0.33-0.103,0.478s-0.161,0.278-0.275,0.394
		c-0.115,0.115-0.248,0.205-0.398,0.271s-0.312,0.099-0.482,0.099c-0.171,0-0.33-0.033-0.478-0.099
		c-0.147-0.065-0.279-0.155-0.393-0.271c-0.115-0.115-0.205-0.246-0.271-0.394c-0.066-0.147-0.099-0.307-0.099-0.478
		c0-0.17,0.033-0.332,0.099-0.486c0.065-0.154,0.155-0.289,0.271-0.403c0.114-0.114,0.246-0.205,0.393-0.271
		c0.148-0.066,0.307-0.099,0.478-0.099c0.17,0,0.331,0.032,0.482,0.099c0.151,0.065,0.284,0.156,0.398,0.271
		c0.114,0.114,0.207,0.249,0.275,0.403S17.984,75.339,17.984,75.509z M17.59,78.638v9.965h-1.751v-9.965H17.59z"/>
	<path fill="#085CA8" d="M20.482,88.603v-9.965h1.003c0.19,0,0.321,0.035,0.394,0.107s0.122,0.197,0.147,0.375l0.118,1.554
		c0.341-0.695,0.763-1.237,1.264-1.628c0.502-0.391,1.09-0.586,1.766-0.586c0.275,0,0.525,0.031,0.748,0.094
		c0.223,0.063,0.43,0.149,0.62,0.261l-0.227,1.309c-0.046,0.163-0.147,0.245-0.305,0.245c-0.092,0-0.233-0.03-0.423-0.093
		c-0.19-0.063-0.456-0.094-0.797-0.094c-0.61,0-1.12,0.177-1.53,0.531c-0.41,0.354-0.752,0.869-1.028,1.544v6.346H20.482z"/>
	<path fill="#085CA8" d="M35.229,88.603c-0.25,0-0.407-0.121-0.472-0.363l-0.157-1.211c-0.427,0.519-0.914,0.934-1.461,1.244
		c-0.548,0.313-1.176,0.468-1.884,0.468c-0.571,0-1.089-0.11-1.554-0.329c-0.466-0.221-0.863-0.543-1.19-0.969
		c-0.328-0.427-0.581-0.958-0.757-1.594c-0.177-0.637-0.266-1.367-0.266-2.194c0-0.734,0.098-1.418,0.295-2.051
		s0.48-1.183,0.851-1.647c0.37-0.466,0.821-0.832,1.353-1.098s1.134-0.398,1.81-0.398c0.61,0,1.131,0.104,1.564,0.311
		c0.433,0.207,0.82,0.496,1.161,0.87v-5.528h1.751v14.49H35.229z M31.834,87.324c0.571,0,1.071-0.131,1.5-0.393
		c0.429-0.263,0.825-0.633,1.185-1.111V81c-0.321-0.434-0.674-0.736-1.057-0.91c-0.384-0.174-0.809-0.262-1.274-0.262
		c-0.932,0-1.646,0.332-2.145,0.994c-0.499,0.662-0.748,1.607-0.748,2.833c0,0.649,0.055,1.205,0.167,1.667
		c0.111,0.463,0.275,0.844,0.492,1.142c0.217,0.298,0.482,0.517,0.797,0.654C31.067,87.255,31.428,87.324,31.834,87.324z"/>
	<path fill="#085CA8" d="M39.016,88.603v-9.965h1.003c0.19,0,0.321,0.035,0.394,0.107s0.122,0.197,0.147,0.375l0.118,1.554
		c0.341-0.695,0.763-1.237,1.264-1.628c0.502-0.391,1.09-0.586,1.766-0.586c0.275,0,0.525,0.031,0.748,0.094
		c0.223,0.063,0.43,0.149,0.62,0.261l-0.227,1.309c-0.046,0.163-0.147,0.245-0.305,0.245c-0.092,0-0.233-0.03-0.423-0.093
		c-0.19-0.063-0.456-0.094-0.797-0.094c-0.61,0-1.12,0.177-1.53,0.531c-0.41,0.354-0.752,0.869-1.028,1.544v6.346H39.016z"/>
	<path fill="#085CA8" d="M49.089,75.509c0,0.171-0.034,0.33-0.103,0.478s-0.161,0.278-0.275,0.394
		c-0.115,0.115-0.248,0.205-0.398,0.271S48,76.75,47.83,76.75c-0.171,0-0.33-0.033-0.478-0.099
		c-0.147-0.065-0.279-0.155-0.393-0.271c-0.115-0.115-0.205-0.246-0.271-0.394c-0.066-0.147-0.099-0.307-0.099-0.478
		c0-0.17,0.033-0.332,0.099-0.486c0.065-0.154,0.155-0.289,0.271-0.403c0.114-0.114,0.246-0.205,0.393-0.271
		c0.148-0.066,0.307-0.099,0.478-0.099c0.17,0,0.331,0.032,0.482,0.099c0.151,0.065,0.284,0.156,0.398,0.271
		c0.114,0.114,0.207,0.249,0.275,0.403S49.089,75.339,49.089,75.509z M48.695,78.638v9.965h-1.751v-9.965H48.695z"/>
	<path fill="#085CA8" d="M55.532,78.48c0.597,0,1.147,0.101,1.653,0.301c0.505,0.199,0.941,0.488,1.308,0.865
		s0.654,0.843,0.861,1.396c0.207,0.555,0.31,1.186,0.31,1.895c0,0.275-0.03,0.459-0.089,0.551c-0.059,0.092-0.17,0.138-0.334,0.138
		h-6.63c0.013,0.63,0.098,1.177,0.255,1.643c0.158,0.466,0.374,0.854,0.649,1.166s0.604,0.544,0.984,0.698s0.807,0.231,1.279,0.231
		c0.439,0,0.818-0.051,1.136-0.153c0.318-0.102,0.592-0.211,0.821-0.329s0.421-0.228,0.576-0.329
		c0.154-0.102,0.287-0.152,0.398-0.152c0.144,0,0.255,0.055,0.334,0.167l0.492,0.64c-0.216,0.262-0.476,0.49-0.777,0.684
		s-0.625,0.353-0.969,0.477c-0.344,0.125-0.7,0.219-1.067,0.281c-0.367,0.062-0.731,0.093-1.092,0.093
		c-0.689,0-1.323-0.116-1.904-0.349c-0.58-0.233-1.082-0.574-1.505-1.023s-0.752-1.006-0.989-1.668
		c-0.236-0.662-0.354-1.423-0.354-2.281c0-0.695,0.106-1.345,0.32-1.948c0.213-0.604,0.52-1.126,0.919-1.569
		c0.4-0.442,0.889-0.79,1.466-1.043C54.162,78.607,54.811,78.48,55.532,78.48z M55.572,79.769c-0.846,0-1.512,0.244-1.997,0.732
		c-0.485,0.489-0.787,1.166-0.905,2.032h5.42c0-0.407-0.056-0.778-0.167-1.116c-0.112-0.338-0.275-0.63-0.492-0.876
		c-0.217-0.246-0.481-0.437-0.792-0.571C56.328,79.836,55.972,79.769,55.572,79.769z"/>
	<path fill="#085CA8" d="M72.796,76.71c-0.059,0.098-0.122,0.172-0.187,0.221s-0.151,0.074-0.255,0.074
		c-0.112,0-0.241-0.057-0.389-0.168s-0.334-0.234-0.561-0.369c-0.226-0.134-0.498-0.257-0.816-0.368
		c-0.318-0.112-0.703-0.167-1.156-0.167c-0.426,0-0.803,0.057-1.131,0.172s-0.602,0.271-0.821,0.467
		c-0.22,0.197-0.385,0.428-0.497,0.693c-0.111,0.266-0.167,0.553-0.167,0.861c0,0.394,0.097,0.72,0.29,0.979
		c0.193,0.26,0.449,0.48,0.768,0.664c0.318,0.184,0.679,0.343,1.082,0.477c0.403,0.135,0.816,0.274,1.239,0.419
		c0.423,0.144,0.836,0.307,1.24,0.487c0.403,0.18,0.764,0.408,1.082,0.684c0.318,0.275,0.574,0.613,0.767,1.013
		c0.193,0.4,0.291,0.892,0.291,1.476c0,0.617-0.105,1.195-0.315,1.736s-0.517,1.012-0.92,1.412s-0.898,0.715-1.485,0.943
		c-0.587,0.23-1.254,0.345-2.002,0.345c-0.912,0-1.743-0.165-2.494-0.497c-0.751-0.33-1.392-0.778-1.923-1.342l0.551-0.906
		c0.052-0.071,0.116-0.133,0.192-0.182c0.075-0.049,0.159-0.073,0.25-0.073c0.138,0,0.295,0.073,0.472,0.222
		c0.177,0.146,0.398,0.31,0.664,0.486c0.266,0.178,0.587,0.34,0.964,0.486c0.377,0.148,0.837,0.223,1.382,0.223
		c0.453,0,0.856-0.063,1.21-0.188c0.354-0.125,0.654-0.301,0.9-0.526c0.246-0.226,0.434-0.497,0.565-0.812s0.197-0.666,0.197-1.053
		c0-0.426-0.097-0.775-0.29-1.047c-0.194-0.272-0.448-0.5-0.763-0.684c-0.314-0.184-0.674-0.34-1.077-0.468
		s-0.816-0.259-1.239-0.394s-0.836-0.291-1.24-0.467c-0.403-0.178-0.762-0.407-1.077-0.689c-0.314-0.281-0.569-0.635-0.762-1.057
		c-0.193-0.424-0.29-0.947-0.29-1.57c0-0.498,0.097-0.979,0.29-1.445s0.474-0.879,0.841-1.24c0.367-0.359,0.822-0.648,1.363-0.865
		s1.162-0.324,1.864-0.324c0.787,0,1.505,0.125,2.154,0.373c0.649,0.25,1.216,0.61,1.702,1.082L72.796,76.71z"/>
	<path fill="#085CA8" d="M82.85,88.603h-0.777c-0.171,0-0.309-0.026-0.413-0.078c-0.105-0.053-0.174-0.164-0.207-0.335l-0.197-0.925
		c-0.263,0.236-0.518,0.447-0.768,0.635c-0.249,0.187-0.511,0.344-0.787,0.473c-0.276,0.127-0.569,0.225-0.881,0.289
		c-0.312,0.066-0.657,0.099-1.038,0.099c-0.387,0-0.75-0.054-1.087-0.163c-0.338-0.107-0.631-0.271-0.88-0.488
		c-0.25-0.217-0.448-0.492-0.595-0.824S75,86.559,75,86.105c0-0.395,0.108-0.775,0.325-1.14c0.217-0.365,0.566-0.689,1.048-0.973
		c0.482-0.282,1.113-0.515,1.894-0.696c0.78-0.181,1.735-0.271,2.863-0.271v-0.781c0-0.779-0.166-1.367-0.497-1.768
		c-0.331-0.398-0.821-0.599-1.47-0.599c-0.427,0-0.786,0.054-1.078,0.162c-0.292,0.108-0.544,0.229-0.757,0.364
		s-0.397,0.256-0.551,0.363c-0.154,0.109-0.307,0.163-0.458,0.163c-0.118,0-0.221-0.031-0.31-0.094
		c-0.089-0.062-0.159-0.14-0.212-0.231l-0.314-0.561c0.551-0.531,1.144-0.928,1.78-1.189c0.636-0.263,1.341-0.395,2.115-0.395
		c0.557,0,1.052,0.092,1.485,0.275c0.433,0.184,0.797,0.439,1.092,0.768c0.295,0.328,0.518,0.725,0.669,1.19
		s0.226,0.978,0.226,1.534V88.603z M78.305,87.531c0.308,0,0.59-0.031,0.846-0.094c0.256-0.063,0.497-0.15,0.723-0.266
		c0.227-0.114,0.443-0.254,0.649-0.418s0.408-0.351,0.605-0.561v-2.057c-0.807,0-1.492,0.052-2.056,0.154
		c-0.564,0.102-1.023,0.236-1.377,0.4c-0.354,0.165-0.612,0.359-0.772,0.584s-0.241,0.475-0.241,0.752
		c0,0.264,0.042,0.491,0.127,0.683c0.085,0.191,0.2,0.349,0.345,0.47c0.144,0.123,0.314,0.211,0.511,0.268
		S78.075,87.531,78.305,87.531z"/>
	<path fill="#085CA8" d="M83.735,78.638h1.436c0.138,0,0.252,0.035,0.344,0.107s0.158,0.158,0.197,0.256l2.528,6.414
		c0.092,0.236,0.164,0.473,0.217,0.709s0.102,0.469,0.148,0.697c0.053-0.229,0.107-0.461,0.166-0.697
		c0.061-0.236,0.135-0.473,0.227-0.709l2.559-6.414c0.039-0.104,0.104-0.191,0.191-0.26c0.088-0.069,0.197-0.104,0.33-0.104h1.367
		l-4.063,9.965h-1.584L83.735,78.638z"/>
	<path fill="#085CA8" d="M97.213,75.509c0,0.171-0.035,0.33-0.104,0.478s-0.162,0.278-0.275,0.394
		c-0.115,0.115-0.248,0.205-0.398,0.271s-0.313,0.099-0.482,0.099s-0.33-0.033-0.477-0.099c-0.148-0.065-0.279-0.155-0.395-0.271
		s-0.205-0.246-0.27-0.394c-0.066-0.147-0.1-0.307-0.1-0.478c0-0.17,0.033-0.332,0.1-0.486c0.064-0.154,0.154-0.289,0.27-0.403
		s0.246-0.205,0.395-0.271c0.146-0.066,0.307-0.099,0.477-0.099s0.332,0.032,0.482,0.099c0.15,0.065,0.283,0.156,0.398,0.271
		c0.113,0.114,0.207,0.249,0.275,0.403S97.213,75.339,97.213,75.509z M96.818,78.638v9.965h-1.75v-9.965H96.818z"/>
	<path fill="#085CA8" d="M99.711,88.603v-9.965h1.043c0.248,0,0.406,0.121,0.473,0.363l0.137,1.082
		c0.434-0.479,0.916-0.865,1.451-1.16s1.152-0.443,1.854-0.443c0.545,0,1.025,0.091,1.441,0.271c0.418,0.18,0.764,0.436,1.043,0.768
		c0.279,0.33,0.49,0.729,0.635,1.194s0.217,0.98,0.217,1.544v6.346h-1.752v-6.346c0-0.754-0.172-1.339-0.516-1.756
		c-0.344-0.416-0.871-0.624-1.578-0.624c-0.52,0-1.002,0.124-1.451,0.374c-0.449,0.249-0.865,0.587-1.244,1.014v7.338H99.711z"/>
	<path fill="#085CA8" d="M113.807,78.47c0.434,0,0.838,0.049,1.217,0.143c0.377,0.096,0.719,0.234,1.027,0.418h2.705v0.65
		c0,0.216-0.139,0.354-0.414,0.412l-1.131,0.158c0.223,0.426,0.334,0.901,0.334,1.426c0,0.486-0.092,0.927-0.279,1.323
		c-0.188,0.397-0.447,0.736-0.777,1.019c-0.332,0.281-0.725,0.498-1.18,0.648c-0.457,0.151-0.957,0.227-1.502,0.227
		c-0.465,0-0.904-0.055-1.316-0.167c-0.211,0.136-0.369,0.282-0.479,0.438c-0.107,0.155-0.162,0.309-0.162,0.458
		c0,0.244,0.096,0.429,0.285,0.554c0.191,0.126,0.443,0.216,0.758,0.271c0.314,0.054,0.672,0.08,1.072,0.08s0.809,0,1.225,0
		s0.824,0.037,1.225,0.11s0.758,0.192,1.072,0.358s0.568,0.395,0.758,0.688c0.189,0.291,0.285,0.67,0.285,1.135
		c0,0.432-0.107,0.85-0.32,1.254c-0.213,0.406-0.52,0.766-0.92,1.081c-0.398,0.315-0.889,0.567-1.465,0.757
		c-0.578,0.189-1.23,0.284-1.957,0.284c-0.729,0-1.367-0.072-1.914-0.217s-1.002-0.339-1.363-0.581
		c-0.359-0.243-0.631-0.523-0.811-0.842s-0.271-0.652-0.271-1c0-0.492,0.156-0.91,0.469-1.256c0.311-0.344,0.738-0.618,1.283-0.822
		c-0.281-0.131-0.506-0.306-0.674-0.525c-0.168-0.219-0.25-0.512-0.25-0.879c0-0.144,0.025-0.293,0.078-0.446
		c0.053-0.154,0.133-0.306,0.24-0.457c0.109-0.15,0.242-0.294,0.398-0.433c0.158-0.137,0.342-0.258,0.551-0.363
		c-0.492-0.275-0.877-0.641-1.156-1.096c-0.277-0.457-0.418-0.989-0.418-1.6c0-0.484,0.094-0.926,0.281-1.322
		s0.447-0.734,0.781-1.014c0.336-0.279,0.734-0.494,1.195-0.645C112.75,78.546,113.256,78.47,113.807,78.47z M116.916,89.109
		c0-0.254-0.068-0.459-0.207-0.612c-0.137-0.153-0.324-0.272-0.561-0.356c-0.236-0.083-0.508-0.145-0.816-0.186
		c-0.309-0.039-0.633-0.061-0.973-0.061c-0.342,0-0.689,0-1.043,0c-0.355,0-0.693-0.043-1.014-0.133
		c-0.375,0.178-0.678,0.395-0.91,0.65s-0.35,0.563-0.35,0.917c0,0.224,0.059,0.432,0.172,0.626c0.115,0.193,0.291,0.361,0.527,0.502
		s0.533,0.253,0.891,0.335s0.777,0.123,1.264,0.123c0.473,0,0.895-0.044,1.27-0.13c0.373-0.088,0.689-0.211,0.949-0.371
		c0.258-0.161,0.457-0.352,0.594-0.572C116.848,89.621,116.916,89.376,116.916,89.109z M113.807,83.734
		c0.355,0,0.668-0.049,0.939-0.148c0.273-0.098,0.5-0.235,0.686-0.412c0.182-0.178,0.32-0.389,0.412-0.635s0.139-0.517,0.139-0.812
		c0-0.61-0.186-1.095-0.557-1.456s-0.91-0.541-1.619-0.541c-0.701,0-1.236,0.18-1.607,0.541s-0.557,0.846-0.557,1.456
		c0,0.295,0.049,0.565,0.143,0.812c0.096,0.246,0.234,0.457,0.42,0.635c0.182,0.177,0.408,0.314,0.678,0.412
		C113.152,83.685,113.459,83.734,113.807,83.734z"/>
	<path fill="#085CA8" d="M126.016,80.281c-0.078,0.145-0.199,0.217-0.363,0.217c-0.1,0-0.211-0.036-0.336-0.108
		c-0.123-0.072-0.277-0.153-0.457-0.241s-0.395-0.17-0.645-0.246c-0.248-0.075-0.543-0.113-0.885-0.113
		c-0.295,0-0.561,0.038-0.797,0.113c-0.236,0.076-0.438,0.179-0.605,0.311c-0.166,0.131-0.295,0.283-0.383,0.457
		c-0.09,0.174-0.133,0.362-0.133,0.565c0,0.256,0.074,0.47,0.221,0.64c0.148,0.17,0.344,0.318,0.586,0.442
		c0.242,0.125,0.518,0.235,0.826,0.329c0.309,0.096,0.625,0.197,0.949,0.306s0.641,0.228,0.949,0.358
		c0.309,0.132,0.584,0.296,0.826,0.492c0.242,0.197,0.438,0.438,0.586,0.723c0.146,0.285,0.221,0.629,0.221,1.029
		c0,0.459-0.082,0.883-0.246,1.273s-0.406,0.728-0.729,1.014c-0.32,0.285-0.715,0.51-1.18,0.674
		c-0.465,0.163-1.004,0.245-1.613,0.245c-0.695,0-1.324-0.112-1.889-0.339s-1.043-0.517-1.436-0.871l0.412-0.669
		c0.053-0.085,0.115-0.15,0.188-0.196s0.168-0.069,0.285-0.069s0.242,0.046,0.373,0.138s0.291,0.193,0.479,0.305
		c0.186,0.112,0.412,0.214,0.678,0.306s0.6,0.138,0.998,0.138c0.342,0,0.641-0.045,0.896-0.133c0.256-0.089,0.469-0.209,0.639-0.359
		s0.297-0.324,0.379-0.521c0.082-0.196,0.123-0.406,0.123-0.629c0-0.275-0.074-0.504-0.221-0.684
		c-0.148-0.181-0.344-0.335-0.586-0.463s-0.52-0.239-0.832-0.334c-0.311-0.096-0.629-0.195-0.953-0.301
		c-0.324-0.104-0.643-0.225-0.955-0.359c-0.311-0.134-0.588-0.303-0.83-0.506c-0.244-0.203-0.438-0.454-0.586-0.753
		c-0.148-0.298-0.221-0.661-0.221-1.087c0-0.381,0.078-0.746,0.236-1.097c0.156-0.351,0.387-0.659,0.688-0.925
		s0.672-0.477,1.111-0.635c0.439-0.157,0.941-0.236,1.506-0.236c0.656,0,1.244,0.104,1.766,0.311s0.973,0.49,1.352,0.851
		L126.016,80.281z"/>
	<path fill="#085CA8" d="M132.527,88.603V74.506h4.496c0.865,0,1.611,0.085,2.238,0.256c0.625,0.171,1.141,0.413,1.543,0.728
		c0.404,0.314,0.703,0.7,0.896,1.156c0.193,0.455,0.289,0.969,0.289,1.539c0,0.348-0.053,0.683-0.162,1.004
		c-0.107,0.321-0.271,0.619-0.492,0.895c-0.219,0.275-0.494,0.521-0.826,0.738c-0.33,0.217-0.719,0.394-1.166,0.531
		c1.031,0.203,1.807,0.574,2.332,1.111c0.525,0.538,0.787,1.246,0.787,2.125c0,0.598-0.109,1.141-0.33,1.633
		c-0.219,0.492-0.541,0.915-0.963,1.27c-0.424,0.354-0.941,0.628-1.555,0.821s-1.313,0.29-2.1,0.29H132.527z M134.436,80.822h2.518
		c0.539,0,1.004-0.059,1.398-0.178c0.393-0.117,0.719-0.281,0.979-0.491c0.258-0.21,0.451-0.464,0.574-0.763
		c0.125-0.298,0.188-0.625,0.188-0.979c0-0.826-0.248-1.433-0.748-1.82c-0.498-0.387-1.271-0.58-2.32-0.58h-2.588V80.822z
		 M134.436,82.179v4.908h3.049c0.545,0,1.012-0.062,1.402-0.186c0.391-0.125,0.711-0.301,0.965-0.527
		c0.252-0.227,0.438-0.494,0.555-0.807c0.119-0.311,0.178-0.654,0.178-1.027c0-0.729-0.258-1.304-0.771-1.727
		c-0.516-0.424-1.295-0.635-2.338-0.635H134.436z"/>
	<path fill="#085CA8" d="M152.104,88.603h-0.777c-0.172,0-0.309-0.026-0.414-0.078c-0.104-0.053-0.174-0.164-0.205-0.335
		l-0.197-0.925c-0.264,0.236-0.518,0.447-0.768,0.635c-0.25,0.187-0.512,0.344-0.787,0.473c-0.275,0.127-0.568,0.225-0.881,0.289
		c-0.311,0.066-0.656,0.099-1.037,0.099c-0.387,0-0.75-0.054-1.088-0.163c-0.338-0.107-0.631-0.271-0.879-0.488
		c-0.25-0.217-0.449-0.492-0.596-0.824c-0.148-0.332-0.223-0.726-0.223-1.18c0-0.395,0.109-0.775,0.326-1.14
		c0.217-0.365,0.564-0.689,1.047-0.973c0.482-0.282,1.113-0.515,1.895-0.696c0.779-0.181,1.734-0.271,2.861-0.271v-0.781
		c0-0.779-0.166-1.367-0.496-1.768c-0.332-0.398-0.822-0.599-1.471-0.599c-0.426,0-0.785,0.054-1.078,0.162
		c-0.291,0.108-0.543,0.229-0.756,0.364s-0.398,0.256-0.551,0.363c-0.154,0.109-0.307,0.163-0.459,0.163
		c-0.117,0-0.221-0.031-0.309-0.094c-0.09-0.062-0.16-0.14-0.213-0.231l-0.314-0.561c0.551-0.531,1.145-0.928,1.781-1.189
		c0.637-0.263,1.342-0.395,2.115-0.395c0.557,0,1.053,0.092,1.484,0.275c0.434,0.184,0.797,0.439,1.092,0.768
		c0.297,0.328,0.52,0.725,0.67,1.19s0.227,0.978,0.227,1.534V88.603z M147.559,87.531c0.309,0,0.59-0.031,0.846-0.094
		s0.496-0.15,0.723-0.266c0.227-0.114,0.443-0.254,0.65-0.418c0.205-0.164,0.408-0.351,0.604-0.561v-2.057
		c-0.807,0-1.492,0.052-2.055,0.154c-0.564,0.102-1.023,0.236-1.377,0.4c-0.355,0.165-0.613,0.359-0.773,0.584
		s-0.24,0.475-0.24,0.752c0,0.264,0.043,0.491,0.127,0.683c0.086,0.191,0.201,0.349,0.346,0.47c0.143,0.123,0.314,0.211,0.51,0.268
		C147.115,87.503,147.328,87.531,147.559,87.531z"/>
	<path fill="#085CA8" d="M154.563,88.603v-9.965h1.043c0.248,0,0.406,0.121,0.471,0.363l0.139,1.082
		c0.432-0.479,0.916-0.865,1.451-1.16c0.533-0.295,1.152-0.443,1.854-0.443c0.545,0,1.025,0.091,1.441,0.271
		c0.416,0.18,0.764,0.436,1.043,0.768c0.279,0.33,0.49,0.729,0.635,1.194s0.217,0.98,0.217,1.544v6.346h-1.752v-6.346
		c0-0.754-0.172-1.339-0.516-1.756c-0.346-0.416-0.871-0.624-1.58-0.624c-0.518,0-1.002,0.124-1.451,0.374
		c-0.449,0.249-0.863,0.587-1.244,1.014v7.338H154.563z"/>
	<path fill="#085CA8" d="M167.125,74.113v8.529h0.451c0.131,0,0.24-0.019,0.324-0.055c0.086-0.035,0.182-0.109,0.285-0.221
		l3.148-3.375c0.1-0.104,0.197-0.189,0.295-0.256c0.1-0.064,0.23-0.098,0.395-0.098h1.594l-3.67,3.905
		c-0.092,0.111-0.182,0.21-0.27,0.295c-0.09,0.085-0.189,0.161-0.301,0.226c0.117,0.08,0.225,0.17,0.32,0.271
		c0.094,0.102,0.184,0.218,0.27,0.35l3.896,4.918h-1.574c-0.145,0-0.268-0.027-0.369-0.084c-0.102-0.055-0.199-0.143-0.291-0.26
		l-3.275-4.083c-0.098-0.138-0.197-0.228-0.295-0.271s-0.246-0.064-0.443-0.064h-0.49v4.762h-1.762v-14.49H167.125z"/>
</g>
</svg>
