<?xml version="1.0" encoding="utf-8"?>
<!-- Generator: Adobe Illustrator 15.0.2, SVG Export Plug-In . SVG Version: 6.00 Build 0)  -->
<!DOCTYPE svg PUBLIC "-//W3C//DTD SVG 1.1//EN" "http://www.w3.org/Graphics/SVG/1.1/DTD/svg11.dtd">
<svg version="1.1" id="Layer_1" xmlns="http://www.w3.org/2000/svg" xmlns:xlink="http://www.w3.org/1999/xlink" x="0px" y="0px"
	 width="200px" height="200px" viewBox="0 0 200 200" enable-background="new 0 0 200 200" xml:space="preserve">
<circle fill="#FFFFFF" cx="99.453" cy="100.453" r="97.453"/>
<g>
	<path fill="#B0E0F6" d="M100,0C44.771,0,0,44.771,0,100c0,55.229,44.771,100,100,100c55.229,0,100-44.771,100-100
		C200,44.771,155.229,0,100,0z M91.464,154.031H52.029c-5.263,0-9.528-4.266-9.528-9.526V50.569c0-5.263,4.266-9.528,9.528-9.528
		h57.934c5.262,0,9.529,4.266,9.529,9.528v20.185l-16.822,16.82c-3.54,0.036-6.4,2.896-6.436,6.437l-14.411,14.412
		c-0.274-0.034-0.544-0.084-0.827-0.084c-3.594,0-6.508,2.915-6.508,6.509s2.914,6.508,6.508,6.508c1.841,0,3.495-0.771,4.679-2
		h5.79L91.464,154.031L91.464,154.031z M161.313,114.313v48.326h-22.711v-31.295h-19.108v31.295H96.506v-8.605V138.37v-3.567V116.63
		v-2.317H96.28h-8.83h-4.389l3.229-3.229l12.152-12.152l9.15-9.149l11.899-11.897l9.419-9.42l45.846,45.847H161.313L161.313,114.313
		z"/>
	<path fill="#B0E0F6" d="M57.512,79.536h46.968c2.629,0,4.764-2.133,4.764-4.764V57.159c0-2.631-2.135-4.764-4.764-4.764H57.512
		c-2.631,0-4.764,2.133-4.764,4.764v17.613C52.749,77.403,54.881,79.536,57.512,79.536z"/>
	<circle fill="#B0E0F6" cx="59.256" cy="136.586" r="6.508"/>
	<circle fill="#B0E0F6" cx="59.256" cy="114.846" r="6.508"/>
	<circle fill="#B0E0F6" cx="80.996" cy="94.075" r="6.508"/>
	<circle fill="#B0E0F6" cx="80.996" cy="136.586" r="6.508"/>
	<circle fill="#B0E0F6" cx="59.256" cy="94.075" r="6.508"/>
</g>
</svg>
